<svg version="1.0" xmlns="http://www.w3.org/2000/svg" width="10mm" height="15mm" viewBox="0 0 20 30">
	<g fill="#000000" stroke="none">
		<path d="
			M 0 30
			L 0 0
			13 0
			16 1
			19 4
			20 7
			20 10
			19 13
			17 15
			19 17
			20 20
			20 23
			19 26
			16 29
			13 30
			Z
			M 4 26
			L 12 26
			12 26
			14 25
			15 24
			16 22
			16 21
			15 19
			14 18
			12 17
			4 17
			Z
			M 4 13
			L 12 13
			14 12
			15 11
			16 9
			16 8
			15 6
			14 5
			12 4
			4 4
			Z
		"/>
	</g>
</svg>
