<svg version="1.0" xmlns="http://www.w3.org/2000/svg" width="10mm" height="15mm" viewBox="0 0 20 30">
	<g fill="#000000" stroke="none">
		<path d="
			M 20 2
			L 18 6
			14 4
			12 4
			8 5
			5 8
			4 12
			4 22
			5 24
			6 25
			8 26
			12 26
			14 25
			15 24
			16 22
			16 20
			15 18
			13 17
			10 17
			10 13
			14 13
			17 14
			19 16
			20 19
			20 23
			19 26
			16 29
			13 30
			7 30
			4 29
			1 26
			0 23
			0 12
			1 6
			6 1
			12 0
			14 0
			Z
		"/>
	</g>
</svg>
