<svg version="1.0" xmlns="http://www.w3.org/2000/svg" width="10mm" height="15mm" viewBox="0 0 20 30">
	<g fill="#000000" stroke="none">
		<path d="
			M 0 8
			L 2 4
			4 2
			8 0
			12 0
			16 2
			18 4
			20 8
			20 22
			18 25
			20 27
			17 30
			15 28
			12 30
			8 30
			4 28
			2 26
			0 22
			Z
			M 4 21
			L 5 23
			7 25
			9 26
			11 26
			12 25
			10 23
			13 20
			15 22
			16 21
			16 9
			15 7
			13 5
			11 4
			9 4
			7 5
			5 7
			4 9
			Z
		"/>
	</g>
</svg>
