<svg version="1.0" xmlns="http://www.w3.org/2000/svg" width="10mm" height="15mm" viewBox="0 0 20 30">
	<g fill="#000000" stroke="none">
		<path d="
			M 6 30
			L 0 28
			2 24
			6 26
			12 26
			14 25
			15 24
			16 22
			16 21
			15 19
			14 18
			12 17
			7 17
			4 16
			1 13
			0 10
			0 7
			1 4
			4 1
			7 0
			14 0
			20 2
			18 6
			14 4
			8 4
			6 5
			5 6
			4 8
			4 9
			5 11
			6 12
			8 13
			13 13
			16 14
			19 17
			20 20
			20 23
			19 26
			16 29
			13 30
			Z
		"/>
	</g>
</svg>
